<svg width="50" height="50" viewBox="0 0 50 50" fill="none" xmlns="http://www.w3.org/2000/svg">
<rect x="15" y="11" width="20" height="20" fill="currentColor"/>
<path d="M38 41V12.2449C38 11.3843 37.6087 10.559 36.9121 9.95042C36.2155 9.34188 35.2708 9 34.2857 9H15.7143C14.7292 9 13.7845 9.34188 13.0879 9.95042C12.3913 10.559 12 11.3843 12 12.2449V41L25 33.5837L38 41ZM17.5714 18.7348L22.5244 18.1945L25 13.8674L27.4756 18.1945L32.4286 18.7348L28.3001 21.7997L29.953 26.8472L25 23.9624L20.047 26.8472L21.6999 21.7997L17.5714 18.7348Z" fill="currentColor"/>
</svg>
